<svg width="64" height="64" viewBox="0 0 64 64" fill="none" xmlns="http://www.w3.org/2000/svg">
<g clip-path="url(#clip0_89_6827)">
<rect width="64" height="64" rx="8" fill="#F7F6F7"/>
<g opacity="0.1">
<path d="M1.21387 -9.52734V121.408" stroke="black" stroke-width="0.0448"/>
<path d="M2.9502 -9.52734V121.408" stroke="black" stroke-width="0.0448"/>
<path d="M4.6875 -9.52734V121.408" stroke="black" stroke-width="0.0448"/>
<path d="M6.42383 -9.52734V121.408" stroke="black" stroke-width="0.0448"/>
<path d="M8.16016 -9.52734V121.408" stroke="black" stroke-width="0.0448"/>
<path d="M9.89648 -9.52734V121.408" stroke="black" stroke-width="0.0448"/>
<path d="M11.6328 -9.52734V121.408" stroke="black" stroke-width="0.0448"/>
<path d="M13.3691 -9.52734V121.408" stroke="black" stroke-width="0.0448"/>
<path d="M15.1055 -9.52734V121.408" stroke="black" stroke-width="0.0448"/>
<path d="M16.8418 -9.52734V121.408" stroke="black" stroke-width="0.0448"/>
<path d="M18.5791 -9.52734V121.408" stroke="black" stroke-width="0.0448"/>
<path d="M20.3154 -9.52734V121.408" stroke="black" stroke-width="0.0448"/>
<path d="M22.0518 -9.52734V121.408" stroke="black" stroke-width="0.0448"/>
<path d="M23.7881 -9.52734V121.408" stroke="black" stroke-width="0.0448"/>
<path d="M25.5244 -9.52734V121.408" stroke="black" stroke-width="0.0448"/>
<path d="M27.2607 -9.52734V121.408" stroke="black" stroke-width="0.0448"/>
<path d="M28.9971 -9.52734V121.408" stroke="black" stroke-width="0.0448"/>
<path d="M30.7334 -9.52734V121.408" stroke="black" stroke-width="0.0448"/>
<path d="M32.4707 -9.52734V121.408" stroke="black" stroke-width="0.0448"/>
<path d="M34.207 -9.52734V121.408" stroke="black" stroke-width="0.0448"/>
<path d="M35.9434 -9.52734V121.408" stroke="black" stroke-width="0.0448"/>
<path d="M37.6797 -9.52734V121.408" stroke="black" stroke-width="0.0448"/>
<path d="M39.416 -9.52734V121.408" stroke="black" stroke-width="0.0448"/>
<path d="M41.1523 -9.52734V121.408" stroke="black" stroke-width="0.0448"/>
<path d="M42.8887 -9.52734V121.408" stroke="black" stroke-width="0.0448"/>
<path d="M44.625 -9.52734V121.408" stroke="black" stroke-width="0.0448"/>
<path d="M46.3623 -9.52734V121.408" stroke="black" stroke-width="0.0448"/>
<path d="M48.0986 -9.52734V121.408" stroke="black" stroke-width="0.0448"/>
<path d="M49.835 -9.52734V121.408" stroke="black" stroke-width="0.0448"/>
<path d="M51.5713 -9.52734V121.408" stroke="black" stroke-width="0.0448"/>
<path d="M53.3076 -9.52734V121.408" stroke="black" stroke-width="0.0448"/>
<path d="M55.0439 -9.52734V121.408" stroke="black" stroke-width="0.0448"/>
<path d="M56.7803 -9.52734V121.408" stroke="black" stroke-width="0.0448"/>
<path d="M58.5166 -9.52734V121.408" stroke="black" stroke-width="0.0448"/>
<path d="M60.2539 -9.52734V121.408" stroke="black" stroke-width="0.0448"/>
<path d="M61.9902 -9.52734V121.408" stroke="black" stroke-width="0.0448"/>
<path d="M63.7266 -9.52734V121.408" stroke="black" stroke-width="0.0448"/>
</g>
<g opacity="0.1">
<path d="M97.4678 0.873047L-33.4679 0.873041" stroke="black" stroke-width="0.0448"/>
<path d="M97.4678 2.60938L-33.4679 2.60937" stroke="black" stroke-width="0.0448"/>
<path d="M97.4678 4.3457L-33.4679 4.3457" stroke="black" stroke-width="0.0448"/>
<path d="M97.4678 6.08203L-33.4679 6.08203" stroke="black" stroke-width="0.0448"/>
<path d="M97.4678 7.81836L-33.4679 7.81835" stroke="black" stroke-width="0.0448"/>
<path d="M97.4678 9.55469L-33.4679 9.55468" stroke="black" stroke-width="0.0448"/>
<path d="M97.4678 11.291L-33.4679 11.291" stroke="black" stroke-width="0.0448"/>
<path d="M97.4678 13.0273L-33.4679 13.0273" stroke="black" stroke-width="0.0448"/>
<path d="M97.4678 14.7637L-33.4679 14.7637" stroke="black" stroke-width="0.0448"/>
<path d="M97.4678 16.5L-33.4679 16.5" stroke="black" stroke-width="0.0448"/>
<path d="M97.4678 18.2383L-33.4679 18.2383" stroke="black" stroke-width="0.0448"/>
<path d="M97.4678 19.9746L-33.4679 19.9746" stroke="black" stroke-width="0.0448"/>
<path d="M97.4678 21.7109L-33.4679 21.7109" stroke="black" stroke-width="0.0448"/>
<path d="M97.4678 23.4473L-33.4679 23.4473" stroke="black" stroke-width="0.0448"/>
<path d="M97.4678 25.1836L-33.4679 25.1836" stroke="black" stroke-width="0.0448"/>
<path d="M97.4678 26.9199L-33.4679 26.9199" stroke="black" stroke-width="0.0448"/>
<path d="M97.4678 28.6562L-33.4679 28.6562" stroke="black" stroke-width="0.0448"/>
<path d="M97.4678 30.3926L-33.4679 30.3926" stroke="black" stroke-width="0.0448"/>
<path d="M97.4678 32.1289L-33.4679 32.1289" stroke="black" stroke-width="0.0448"/>
<path d="M97.4678 33.8652L-33.4679 33.8652" stroke="black" stroke-width="0.0448"/>
<path d="M97.4678 35.6016L-33.4679 35.6016" stroke="black" stroke-width="0.0448"/>
<path d="M97.4678 37.3379L-33.4679 37.3379" stroke="black" stroke-width="0.0448"/>
<path d="M97.4678 39.0742L-33.4679 39.0742" stroke="black" stroke-width="0.0448"/>
<path d="M97.4678 40.8105L-33.4679 40.8105" stroke="black" stroke-width="0.0448"/>
<path d="M97.4678 42.5469L-33.4679 42.5469" stroke="black" stroke-width="0.0448"/>
<path d="M97.4678 44.2832L-33.4679 44.2832" stroke="black" stroke-width="0.0448"/>
<path d="M97.4678 46.0215L-33.4679 46.0215" stroke="black" stroke-width="0.0448"/>
<path d="M97.4678 47.7578L-33.4679 47.7578" stroke="black" stroke-width="0.0448"/>
<path d="M97.4678 49.4941L-33.4679 49.4941" stroke="black" stroke-width="0.0448"/>
<path d="M97.4678 51.2305L-33.4679 51.2305" stroke="black" stroke-width="0.0448"/>
<path d="M97.4678 52.9668L-33.4679 52.9668" stroke="black" stroke-width="0.0448"/>
<path d="M97.4678 54.7031L-33.4679 54.7031" stroke="black" stroke-width="0.0448"/>
<path d="M97.4678 56.4395L-33.4679 56.4394" stroke="black" stroke-width="0.0448"/>
<path d="M97.4678 58.1758L-33.4679 58.1758" stroke="black" stroke-width="0.0448"/>
<path d="M97.4678 59.9121L-33.4679 59.9121" stroke="black" stroke-width="0.0448"/>
<path d="M97.4678 61.6484L-33.4679 61.6484" stroke="black" stroke-width="0.0448"/>
<path d="M97.4678 63.3848L-33.4679 63.3848" stroke="black" stroke-width="0.0448"/>
</g>
<g filter="url(#filter0_d_89_6827)">
<path d="M30.5077 43.9119C30.5077 45.9275 30.281 47.3132 29.8149 48.427C29.3477 49.543 28.6493 50.3626 27.7534 51.2584C26.358 52.6539 24.0492 53.1254 21.7206 52.6768C19.3834 52.2263 16.9802 50.8431 15.3584 48.4636L15.2695 48.3329L15.3401 48.1917L21.9415 34.8673L22.0971 34.5549L24.9063 36.9771L24.488 35.3261L18.7689 30.3639L21.9612 28.2646L18.7637 25.6083L25.3521 22.6775L25.441 22.6984L26.0867 22.8475L19.9376 16.1415L17.4892 13.6525V10.7832H31.0489L31.1208 10.8381L33.8411 12.8878V10.7832H48.3551L50.8898 13.3179V28.0855H49.7107L50.8113 29.1861L50.8898 29.2659V33.0176H45.6792V53.2153H35.7392L35.6673 53.0585L34.5313 50.597L34.5248 50.5839L34.5209 50.5708L30.5077 38.8713V43.9119Z" fill="#030712"/>
<path fill-rule="evenodd" clip-rule="evenodd" d="M34.5972 22.3556H39.587V18.6105C39.587 15.247 38.0898 13.4307 34.1262 13.4307V11.2598H48.0541V13.3509C44.0839 13.5023 42.794 15.157 42.794 18.6105V22.3556H48.0541V25.3546H42.794V27.1167H48.0541V30.1157H42.794V50.3578H34.7166L28.7599 33.4547H27.5685V44.2738C27.5685 48.0216 24.5341 51.0925 20.7863 51.0925C15.0358 51.0925 13.11 44.6041 13.1104 39.7468C13.1106 35.4663 15.6301 33.4547 18.4667 33.4547C21.41 33.4547 23.7964 35.8407 23.7965 38.784V43.2768C23.7965 45.3135 21.5068 45.5666 21.5068 45.5666C21.4279 43.7394 21.854 41.9487 19.4047 42.4621C18.1417 42.7268 17.6539 47.2495 21.4397 47.2495C24.4683 47.2495 24.9654 44.4451 24.8352 43.0429C24.8352 43.0429 24.7226 36.4924 24.6282 30.1157H19.0148V27.1167H24.586C24.5777 26.5154 24.5692 25.9259 24.5617 25.3546H19.0148V22.3556H24.5263C24.5116 20.9842 24.5015 19.8571 24.5015 19.1207C24.5014 14.5811 21.4226 13.8374 17.9666 13.3509V11.2598H30.7945L34.5972 22.3556ZM37.2566 30.1157L39.587 36.9157V30.1157H37.2566ZM36.229 27.1167H39.587V25.3546H35.6248L36.229 27.1167Z" fill="white" stroke="#030712" stroke-width="0.497498"/>
<path d="M22.1102 50.9628C21.6819 51.0484 21.2392 51.0936 20.786 51.0936C20.3126 51.0936 19.866 51.0462 19.4435 50.9628H22.1102Z" fill="#030712"/>
<path d="M24.0226 50.2661C23.6838 50.452 23.3267 50.6078 22.9559 50.7341H18.6016C18.2391 50.6074 17.8968 50.4523 17.5755 50.2661H24.0226Z" fill="#030712"/>
<path d="M42.7942 50.3589H34.7156L34.6829 50.2661H42.7942V50.3589Z" fill="#030712"/>
<path d="M25.0514 49.5707C24.845 49.7391 24.6284 49.8951 24.403 50.0386H17.2147C17.0027 49.8952 16.8014 49.7383 16.6081 49.5707H25.0514Z" fill="#030712"/>
<path d="M42.7942 50.0386H34.6032L34.4385 49.5707H42.7942V50.0386Z" fill="#030712"/>
<path d="M25.7874 48.8739C25.6386 49.0374 25.4819 49.1935 25.3181 49.3419H16.3571C16.2019 49.1931 16.0527 49.0374 15.9101 48.8739H25.7874Z" fill="#030712"/>
<path d="M42.7942 49.3419H34.3575L34.1927 48.8739H42.7942V49.3419Z" fill="#030712"/>
<path d="M26.3416 48.1785C26.2292 48.3397 26.1102 48.4958 25.9848 48.6465H15.7205C15.5985 48.4954 15.4813 48.3396 15.3689 48.1785H26.3416Z" fill="#030712"/>
<path d="M42.7942 48.6465H34.1117L33.947 48.1785H42.7942V48.6465Z" fill="#030712"/>
<path d="M26.7678 47.4817C26.6826 47.6416 26.5917 47.7977 26.4946 47.9497H15.2133C15.1139 47.7974 15.0186 47.6413 14.927 47.4817H26.7678Z" fill="#030712"/>
<path d="M42.7942 47.9497H33.8672L33.7012 47.4817H42.7942V47.9497Z" fill="#030712"/>
<path d="M27.0894 46.7863C27.0264 46.9452 26.9583 47.1014 26.8841 47.2543H14.7976C14.715 47.1012 14.637 46.9448 14.561 46.7863H19.6696C20.111 47.072 20.6911 47.2517 21.4396 47.2517C22.2008 47.2516 22.802 47.0739 23.2736 46.7863H27.0894Z" fill="#030712"/>
<path d="M42.7942 47.2543H33.6215L33.4568 46.7863H42.7942V47.2543Z" fill="#030712"/>
<path d="M18.9886 46.1235C19.0873 46.267 19.2003 46.403 19.3324 46.5262H14.4408C14.3812 46.3936 14.3247 46.2592 14.2695 46.1235H18.9886Z" fill="#030712"/>
<path d="M27.3116 46.1235C27.2734 46.2594 27.2323 46.3938 27.1861 46.5262H23.6305C23.7756 46.4027 23.905 46.2678 24.02 46.1235H27.3116Z" fill="#030712"/>
<path d="M42.7942 46.5262H33.3653L33.2228 46.1235H42.7942V46.5262Z" fill="#030712"/>
<path d="M18.6448 45.4268C18.69 45.5644 18.7457 45.6991 18.8121 45.8294H14.1532C14.1028 45.6963 14.0544 45.5621 14.0081 45.4268H18.6448Z" fill="#030712"/>
<path d="M27.4698 45.4268C27.4466 45.5625 27.4184 45.6965 27.3874 45.8294H24.2292C24.3105 45.6997 24.3803 45.5643 24.4436 45.4268H27.4698Z" fill="#030712"/>
<path d="M42.7942 45.8294H33.1195L32.9783 45.4268H42.7942V45.8294Z" fill="#030712"/>
<path d="M22.0971 45.4268C21.7592 45.539 21.5062 45.568 21.5062 45.568C21.5042 45.5209 21.5051 45.4738 21.5036 45.4268H22.0971Z" fill="#030712"/>
<path d="M18.4997 44.7314C18.5128 44.8657 18.5351 45.0003 18.565 45.134H13.9113C13.8689 45.0006 13.8286 44.8663 13.7898 44.7314H18.4997Z" fill="#030712"/>
<path d="M23.2448 44.7314C23.0902 44.8954 22.9152 45.0269 22.7376 45.134H21.4984C21.4969 44.9982 21.4934 44.8637 21.4932 44.7314H23.2448Z" fill="#030712"/>
<path d="M27.5521 44.7314C27.5431 44.8667 27.5296 45.0009 27.5129 45.134H24.5625C24.6115 45.0005 24.6541 44.8662 24.6893 44.7314H27.5521Z" fill="#030712"/>
<path d="M42.7942 45.134H32.8751L32.7326 44.7314H42.7942V45.134Z" fill="#030712"/>
<path d="M18.5023 44.0346C18.4887 44.1658 18.4835 44.3005 18.4853 44.4372H13.7074C13.6718 44.3035 13.6377 44.1693 13.6055 44.0346H18.5023Z" fill="#030712"/>
<path d="M23.6723 44.0346C23.6202 44.1824 23.5538 44.3161 23.4762 44.4372H21.4906C21.4892 44.2993 21.4872 44.1647 21.4814 44.0346H23.6723Z" fill="#030712"/>
<path d="M27.5678 44.2751C27.5678 44.3292 27.5651 44.3835 27.5639 44.4372H24.756C24.7825 44.301 24.8039 44.1665 24.8187 44.0346H27.5678V44.2751Z" fill="#030712"/>
<path d="M42.7942 44.4372H32.6293L32.4868 44.0346H42.7942V44.4372Z" fill="#030712"/>
<path d="M18.6513 43.3392C18.6075 43.4648 18.5729 43.6002 18.5454 43.7418H13.5388C13.5093 43.6079 13.4827 43.4736 13.4564 43.3392H18.6513Z" fill="#030712"/>
<path d="M23.7939 43.3392C23.7906 43.4824 23.7753 43.6161 23.7507 43.7418H21.4605C21.4469 43.5994 21.4264 43.4649 21.3977 43.3392H23.7939Z" fill="#030712"/>
<path d="M27.5678 43.7418H24.8423C24.8501 43.6016 24.8546 43.4668 24.8514 43.3392H27.5678V43.7418Z" fill="#030712"/>
<path d="M42.7942 43.7418H32.3836L32.2424 43.3392H42.7942V43.7418Z" fill="#030712"/>
<path d="M19.0735 42.6424C18.962 42.7433 18.864 42.8813 18.7794 43.0451H13.4002C13.3764 42.9109 13.3543 42.7766 13.3336 42.6424H19.0735Z" fill="#030712"/>
<path d="M23.7965 43.0451H21.3036C21.2372 42.8861 21.1508 42.7493 21.0278 42.6424H23.7965V43.0451Z" fill="#030712"/>
<path d="M27.5678 43.0451H24.8344C24.8344 43.0451 24.8323 42.9035 24.8279 42.6424H27.5678V43.0451Z" fill="#030712"/>
<path d="M42.7942 43.0451H32.1391L31.9966 42.6424H42.7942V43.0451Z" fill="#030712"/>
<path d="M23.7965 42.3496H13.2904C13.2718 42.2152 13.255 42.0809 13.2394 41.947H23.7965V42.3496Z" fill="#030712"/>
<path d="M27.5678 42.3496H24.824C24.8219 42.2295 24.8199 42.0949 24.8174 41.947H27.5678V42.3496Z" fill="#030712"/>
<path d="M42.7942 42.3496H31.8934L31.7522 41.947H42.7942V42.3496Z" fill="#030712"/>
<path d="M23.7965 41.6529H13.2068C13.1932 41.5182 13.1821 41.3839 13.1715 41.2503H23.7965V41.6529Z" fill="#030712"/>
<path d="M27.5678 41.6529H24.8122C24.8101 41.5261 24.808 41.3918 24.8057 41.2503H27.5678V41.6529Z" fill="#030712"/>
<path d="M42.7942 41.6529H31.6476L31.5064 41.2503H42.7942V41.6529Z" fill="#030712"/>
<path d="M23.7965 40.9574H13.1505C13.1419 40.8225 13.134 40.6883 13.1283 40.5548H23.7965V40.9574Z" fill="#030712"/>
<path d="M27.5678 40.9574H24.8004C24.7983 40.8282 24.7975 40.6939 24.7952 40.5548H27.5678V40.9574Z" fill="#030712"/>
<path d="M42.7942 40.9574H31.4032L31.2607 40.5548H42.7942V40.9574Z" fill="#030712"/>
<path d="M23.7965 40.2607H13.1179C13.1142 40.1254 13.1121 39.9912 13.1113 39.8581H23.7965V40.2607Z" fill="#030712"/>
<path d="M27.5678 40.2607H24.79C24.7878 40.1301 24.7857 39.9958 24.7834 39.8581H27.5678V40.2607Z" fill="#030712"/>
<path d="M42.7942 40.2607H31.1574L31.0162 39.8581H42.7942V40.2607Z" fill="#030712"/>
<path d="M23.7965 39.5313H13.1139C13.1163 39.418 13.1211 39.3066 13.127 39.1966H23.7965V39.5313Z" fill="#030712"/>
<path d="M27.5678 39.5313H24.7782C24.7764 39.4216 24.7748 39.3101 24.773 39.1966H27.5678V39.5313Z" fill="#030712"/>
<path d="M42.7942 39.5313H30.8999L30.7822 39.1966H42.7942V39.5313Z" fill="#030712"/>
<path d="M23.7873 38.4999C23.7923 38.5945 23.7965 38.6902 23.7965 38.7862V38.8345H13.1519C13.1622 38.7211 13.1742 38.6096 13.1885 38.4999H23.7873Z" fill="#030712"/>
<path d="M27.5678 38.8345H24.7677C24.7659 38.7245 24.7631 38.6129 24.7612 38.4999H27.5678V38.8345Z" fill="#030712"/>
<path d="M42.7942 38.8345H30.6554L30.5365 38.4999H42.7942V38.8345Z" fill="#030712"/>
<path d="M23.705 37.8044C23.7255 37.9148 23.7423 38.0264 23.756 38.1391H13.2434C13.2632 38.0253 13.286 37.9139 13.31 37.8044H23.705Z" fill="#030712"/>
<path d="M27.5678 38.1391H24.756C24.7542 38.0288 24.7526 37.9172 24.7507 37.8044H27.5678V38.1391Z" fill="#030712"/>
<path d="M42.7942 38.1391H30.4097L30.292 37.8044H42.7942V38.1391Z" fill="#030712"/>
<path d="M23.5246 37.1077C23.5611 37.2178 23.5945 37.3292 23.6239 37.4423H13.3989C13.4301 37.3282 13.4637 37.2168 13.4996 37.1077H23.5246Z" fill="#030712"/>
<path d="M27.5678 37.4423H24.7455C24.7437 37.3318 24.7408 37.2203 24.739 37.1077H27.5678V37.4423Z" fill="#030712"/>
<path d="M42.7942 37.4423H30.1639L30.0463 37.1077H42.7942V37.4423Z" fill="#030712"/>
<path d="M23.2383 36.4123C23.2929 36.5218 23.3441 36.6332 23.3912 36.7469H13.629C13.6742 36.6325 13.721 36.5206 13.7715 36.4123H23.2383Z" fill="#030712"/>
<path d="M27.5678 36.7469H24.7338C24.732 36.6362 24.7303 36.5246 24.7285 36.4123H27.5678V36.7469Z" fill="#030712"/>
<path d="M39.5275 36.7469H29.9195L29.8018 36.4123H39.4138L39.5275 36.7469Z" fill="#030712"/>
<path d="M42.7942 36.7469H39.5863V36.4123H42.7942V36.7469Z" fill="#030712"/>
<path d="M22.8213 35.7155C22.8981 35.8242 22.971 35.9357 23.0396 36.0502H13.9584C14.0226 35.9347 14.0894 35.8231 14.1597 35.7155H22.8213Z" fill="#030712"/>
<path d="M27.5678 36.0502H24.7233C24.7215 35.9393 24.7185 35.8278 24.7168 35.7155H27.5678V36.0502Z" fill="#030712"/>
<path d="M39.2896 36.0502H29.6737L29.5561 35.7155H39.1745L39.2896 36.0502Z" fill="#030712"/>
<path d="M42.7942 36.0502H39.5863V35.7155H42.7942V36.0502Z" fill="#030712"/>
<path d="M22.237 35.0201C22.344 35.1272 22.4465 35.2388 22.5442 35.3547H14.4185C14.5102 35.2377 14.6055 35.1261 14.7048 35.0201H22.237Z" fill="#030712"/>
<path d="M27.5678 35.3547H24.7115C24.7098 35.2438 24.7081 35.1322 24.7063 35.0201H27.5678V35.3547Z" fill="#030712"/>
<path d="M39.0517 35.3547H29.4293L29.3103 35.0201H38.9366L39.0517 35.3547Z" fill="#030712"/>
<path d="M42.7942 35.3547H39.5863V35.0201H42.7942V35.3547Z" fill="#030712"/>
<path d="M21.3794 34.3233C21.5379 34.427 21.6908 34.5385 21.837 34.658H15.0826C15.2223 34.5378 15.3663 34.4252 15.5166 34.3233H21.3794Z" fill="#030712"/>
<path d="M27.5678 34.658H24.6998C24.698 34.5469 24.6963 34.4353 24.6945 34.3233H27.5678V34.658Z" fill="#030712"/>
<path d="M38.8124 34.658H29.1835L29.0659 34.3233H38.6974L38.8124 34.658Z" fill="#030712"/>
<path d="M42.7942 34.658H39.5863V34.3233H42.7942V34.658Z" fill="#030712"/>
<path d="M19.8121 33.6279C20.1321 33.7112 20.44 33.8243 20.7337 33.9625H16.1506C16.4476 33.821 16.7581 33.7097 17.0787 33.6279H19.8121Z" fill="#030712"/>
<path d="M27.5678 33.9625H24.6893C24.6876 33.8514 24.6858 33.7398 24.6841 33.6279H27.5678V33.9625Z" fill="#030712"/>
<path d="M38.5745 33.9625H28.9378L28.8201 33.6279H38.4595L38.5745 33.9625Z" fill="#030712"/>
<path d="M42.7942 33.9625H39.5863V33.6279H42.7942V33.9625Z" fill="#030712"/>
<path d="M38.3353 33.2658H24.6775C24.6758 33.1545 24.674 33.043 24.6723 32.9312H38.2203L38.3353 33.2658Z" fill="#030712"/>
<path d="M42.7942 33.2658H39.5863V32.9312H42.7942V33.2658Z" fill="#030712"/>
<path d="M38.0856 32.5364H24.6671C24.6657 32.4476 24.6632 32.3587 24.6619 32.2697H37.9941L38.0856 32.5364Z" fill="#030712"/>
<path d="M42.7942 32.5364H39.5863V32.2697H42.7942V32.5364Z" fill="#030712"/>
<path d="M37.8464 31.8396H24.6553C24.654 31.7508 24.6527 31.6619 24.6514 31.573H37.7549L37.8464 31.8396Z" fill="#030712"/>
<path d="M42.7942 31.8396H39.5863V31.573H42.7942V31.8396Z" fill="#030712"/>
<path d="M37.6085 31.1442H24.6449C24.6435 31.0553 24.641 30.9664 24.6396 30.8775H37.517L37.6085 31.1442Z" fill="#030712"/>
<path d="M42.7942 31.1442H39.5863V30.8775H42.7942V31.1442Z" fill="#030712"/>
<path d="M37.3693 30.4474H24.6331C24.6318 30.3585 24.6305 30.2696 24.6292 30.1808H37.2778L37.3693 30.4474Z" fill="#030712"/>
<path d="M42.7942 30.4474H39.5863V30.1808H42.7942V30.4474Z" fill="#030712"/>
<path d="M48.0531 29.752H19.0147V29.4853H48.0531V29.752Z" fill="#030712"/>
<path d="M48.0531 29.0566H19.0147V28.7899H48.0531V29.0566Z" fill="#030712"/>
<path d="M48.0531 28.3598H19.0147V28.0932H48.0531V28.3598Z" fill="#030712"/>
<path d="M48.0531 27.6644H19.0147V27.3977H48.0531V27.6644Z" fill="#030712"/>
<path d="M36.1771 26.9676H24.5834C24.5822 26.8785 24.5821 26.7896 24.5808 26.701H36.0856L36.1771 26.9676Z" fill="#030712"/>
<path d="M42.7942 26.9676H39.5863V26.701H42.7942V26.9676Z" fill="#030712"/>
<path d="M35.9379 26.2722H24.5743C24.573 26.183 24.5716 26.0941 24.5704 26.0055H35.8464L35.9379 26.2722Z" fill="#030712"/>
<path d="M42.7942 26.2722H39.5863V26.0055H42.7942V26.2722Z" fill="#030712"/>
<path d="M48.0531 25.3559H42.7942V25.5428H39.5863V25.3559H35.6241L35.6882 25.5428H24.5638C24.563 25.4804 24.562 25.4178 24.5612 25.3559H19.0147V25.3415H48.0531V25.3559Z" fill="#030712"/>
<path d="M48.0531 24.8473H19.0147V24.646H48.0531V24.8473Z" fill="#030712"/>
<path d="M48.0531 24.1506H19.0147V23.9493H48.0531V24.1506Z" fill="#030712"/>
<path d="M48.0531 23.4552H19.0147V23.2539H48.0531V23.4552Z" fill="#030712"/>
<path d="M48.0531 22.7584H19.0147V22.5571H48.0531V22.7584Z" fill="#030712"/>
<path d="M34.496 22.063H24.5233C24.5226 21.9952 24.5227 21.9281 24.522 21.8617H34.4267L34.496 22.063Z" fill="#030712"/>
<path d="M42.7942 22.063H39.5863V21.8617H42.7942V22.063Z" fill="#030712"/>
<path d="M34.2568 21.3662H24.5181C24.5174 21.2983 24.5174 21.2312 24.5168 21.1649H34.1875L34.2568 21.3662Z" fill="#030712"/>
<path d="M42.7942 21.3662H39.5863V21.1649H42.7942V21.3662Z" fill="#030712"/>
<path d="M34.0189 20.6708H24.5128C24.5123 20.6025 24.5121 20.5354 24.5115 20.4695H33.9496L34.0189 20.6708Z" fill="#030712"/>
<path d="M42.7942 20.6708H39.5863V20.4695H42.7942V20.6708Z" fill="#030712"/>
<path d="M33.7797 19.9741H24.5076C24.5072 19.9052 24.5066 19.8381 24.5063 19.7727H33.7104L33.7797 19.9741Z" fill="#030712"/>
<path d="M42.7942 19.9741H39.5863V19.7727H42.7942V19.9741Z" fill="#030712"/>
<path d="M33.5418 19.2786H24.5024C24.5023 19.2248 24.5011 19.172 24.5011 19.1218C24.5011 19.1069 24.4998 19.0921 24.4998 19.0773H33.4725L33.5418 19.2786Z" fill="#030712"/>
<path d="M42.7942 19.2786H39.5863V19.0773H42.7942V19.2786Z" fill="#030712"/>
<path d="M33.2908 18.5479H24.4815C24.4786 18.503 24.4758 18.4586 24.4723 18.4146H33.245L33.2908 18.5479Z" fill="#030712"/>
<path d="M42.7955 18.5479H39.585C39.5847 18.5031 39.5819 18.4587 39.5811 18.4146H42.7981C42.7975 18.4587 42.7957 18.5031 42.7955 18.5479Z" fill="#030712"/>
<path d="M33.0529 17.8525H24.407C24.3999 17.8075 24.3926 17.7631 24.3847 17.7191H33.0071L33.0529 17.8525Z" fill="#030712"/>
<path d="M42.819 17.8525H39.5575C39.5541 17.8077 39.5512 17.7632 39.5471 17.7191H42.8308C42.8274 17.7633 42.8219 17.8076 42.819 17.8525Z" fill="#030712"/>
<path d="M32.8136 17.1557H24.2553C24.2426 17.1107 24.2297 17.0663 24.2161 17.0224H32.7679L32.8136 17.1557Z" fill="#030712"/>
<path d="M42.9105 17.0224C42.9033 17.0664 42.8962 17.1108 42.8896 17.1557H39.4752C39.4675 17.1108 39.4575 17.0665 39.449 17.0224H42.9105Z" fill="#030712"/>
<path d="M32.5757 16.4603H24.0043C23.9839 16.4152 23.9632 16.3707 23.9416 16.3269H32.53L32.5757 16.4603Z" fill="#030712"/>
<path d="M43.0661 16.3269C43.0533 16.3709 43.0413 16.4153 43.0295 16.4603H39.3131C39.2997 16.4153 39.2857 16.3709 39.2713 16.3269H43.0661Z" fill="#030712"/>
<path d="M32.3365 15.7635H23.6056C23.5737 15.7185 23.5423 15.6735 23.5089 15.6302H32.2908L32.3365 15.7635Z" fill="#030712"/>
<path d="M43.3315 15.6302C43.3103 15.674 43.2898 15.7184 43.27 15.7635H39.0451C39.0233 15.7184 39.0004 15.6741 38.9771 15.6302H43.3315Z" fill="#030712"/>
<path d="M32.0986 15.0681H22.9821C22.9299 15.022 22.8757 14.9783 22.8213 14.9348H32.0528L32.0986 15.0681Z" fill="#030712"/>
<path d="M43.6661 15.0681H38.6124C38.577 15.023 38.5415 14.978 38.5039 14.9348H43.7694C43.734 14.9784 43.6994 15.0226 43.6661 15.0681Z" fill="#030712"/>
<path d="M31.8594 14.3713H21.9324C21.84 14.325 21.746 14.2803 21.65 14.238H31.8136L31.8594 14.3713Z" fill="#030712"/>
<path d="M44.5446 14.238C44.4796 14.2807 44.4172 14.3255 44.3563 14.3713H37.8804C37.8157 14.3252 37.7491 14.2808 37.6804 14.238H44.5446Z" fill="#030712"/>
<path d="M31.6215 13.6759H19.8461C19.6247 13.6274 19.3991 13.5836 19.1703 13.5426H31.5757L31.6215 13.6759Z" fill="#030712"/>
<path d="M46.3485 13.5426C46.1574 13.5814 45.9754 13.6256 45.8021 13.6759H36.3235C36.1156 13.6227 35.8965 13.5784 35.666 13.5426H46.3485Z" fill="#030712"/>
<path d="M31.3822 12.9792H17.9663V12.8458H31.3365L31.3822 12.9792Z" fill="#030712"/>
<path d="M48.0531 12.9792H34.1261V12.8458H48.0531V12.9792Z" fill="#030712"/>
<path d="M31.1443 12.2837H17.9663V12.1504H31.0986L31.1443 12.2837Z" fill="#030712"/>
<path d="M48.0531 12.2837H34.1261V12.1504H48.0531V12.2837Z" fill="#030712"/>
</g>
</g>
<defs>
<filter id="filter0_d_89_6827" x="-3.2017" y="0.342235" width="70.1544" height="74.5577" filterUnits="userSpaceOnUse" color-interpolation-filters="sRGB">
<feFlood flood-opacity="0" result="BackgroundImageFix"/>
<feColorMatrix in="SourceAlpha" type="matrix" values="0 0 0 0 0 0 0 0 0 0 0 0 0 0 0 0 0 0 127 0" result="hardAlpha"/>
<feOffset dy="5.62206"/>
<feGaussianBlur stdDeviation="8.03151"/>
<feComposite in2="hardAlpha" operator="out"/>
<feColorMatrix type="matrix" values="0 0 0 0 0.164706 0 0 0 0 0.368627 0 0 0 0 0.603922 0 0 0 0.12 0"/>
<feBlend mode="normal" in2="BackgroundImageFix" result="effect1_dropShadow_89_6827"/>
<feBlend mode="normal" in="SourceGraphic" in2="effect1_dropShadow_89_6827" result="shape"/>
</filter>
<clipPath id="clip0_89_6827">
<rect width="64" height="64" rx="8" fill="white"/>
</clipPath>
</defs>
</svg>
