<svg width="250" height="250" viewBox="0 0 250 250" fill="none" xmlns="http://www.w3.org/2000/svg">
<path d="M0 125C0 55.9644 55.9644 0 125 0C194.036 0 250 55.9644 250 125C250 194.036 194.036 250 125 250C55.9644 250 0 194.036 0 125Z" fill="#E6E7EA"/>
<path fill-rule="evenodd" clip-rule="evenodd" d="M193.651 85.7118V96.3661H56.3498V85.5673L125.072 52.9999L193.651 85.7118ZM125 68.6825C120.582 68.6825 117 72.2644 117 76.6825C117 81.1008 120.582 84.6825 125 84.6825C129.419 84.6825 133 81.1008 133 76.6825C133 72.2644 129.418 68.6825 125 68.6825Z" fill="white"/>
<path d="M93 161.57H114V103.51H136V161.57H157V103.51H179V161.57H186.713V168.713H193.654V183H56.3457V168.713H63.2881V161.57H71V103.51H93V161.57Z" fill="white"/>
</svg>
